HIERARCHY
ROOT Hips
{
    OFFSET 0.000000 97.120003 0.000000
    CHANNELS 6 Xposition Yposition Zposition Yrotation Xrotation Zrotation
    JOINT RightUpLeg
    {
        OFFSET -11.000000 -0.000000 0.000000
        CHANNELS 3 Yrotation Xrotation Zrotation
        JOINT RightLeg
        {
            OFFSET 0.000000 -45.062000 0.000000
            CHANNELS 3 Yrotation Xrotation Zrotation
            JOINT RightFoot
            {
                OFFSET 0.000000 -42.057999 0.000000
                CHANNELS 3 Yrotation Xrotation Zrotation
                End Site
                {
                    OFFSET 0.000000 -10.000000 15.120000
                }
            }
        }
    }
    JOINT LeftUpLeg
    {
        OFFSET 11.000000 -0.000000 0.000000
        CHANNELS 3 Yrotation Xrotation Zrotation
        JOINT LeftLeg
        {
            OFFSET 0.000000 -45.062000 0.000000
            CHANNELS 3 Yrotation Xrotation Zrotation
            JOINT LeftFoot
            {
                OFFSET 0.000000 -42.057999 0.000000
                CHANNELS 3 Yrotation Xrotation Zrotation
                End Site
                {
                    OFFSET 0.000000 -10.000000 15.120000
                }
            }
        }
    }
    JOINT Spine
    {
        OFFSET 0.000000 8.120000 0.000000
        CHANNELS 3 Yrotation Xrotation Zrotation
        JOINT Spine1
        {
            OFFSET 0.000000 17.980000 0.000000
            CHANNELS 3 Yrotation Xrotation Zrotation
            JOINT Spine2
            {
                OFFSET 0.000000 12.760000 0.000000
                CHANNELS 3 Yrotation Xrotation Zrotation
                JOINT Neck
                {
                    OFFSET 0.000000 19.139999 0.000000
                    CHANNELS 3 Yrotation Xrotation Zrotation
                    JOINT Neck1
                    {
                        OFFSET 0.000000 4.250000 0.000000
                        CHANNELS 3 Yrotation Xrotation Zrotation
                        JOINT Head
                        {
                            OFFSET 0.000000 4.250000 0.000000
                            CHANNELS 3 Yrotation Xrotation Zrotation
                            End Site
                            {
                                OFFSET 0.000000 19.120001 0.000000
                            }
                        }
                    }
                }
                JOINT RightShoulder
                {
                    OFFSET -2.900000 13.340000 0.000000
                    CHANNELS 3 Yrotation Xrotation Zrotation
                    JOINT RightArm
                    {
                        OFFSET -16.100000 0.000000 0.000000
                        CHANNELS 3 Yrotation Xrotation Zrotation
                        JOINT RightForeArm
                        {
                            OFFSET -28.000000 0.000000 0.000000
                            CHANNELS 3 Yrotation Xrotation Zrotation
                            JOINT RightHand
                            {
                                OFFSET -26.000000 0.000000 0.000000
                                CHANNELS 3 Yrotation Xrotation Zrotation
                                JOINT RightHandThumb1
                                {
                                    OFFSET -1.937000 -0.484000 2.518000
                                    CHANNELS 3 Yrotation Xrotation Zrotation
                                    JOINT RightHandThumb2
                                    {
                                        OFFSET -3.872000 0.000000 0.000000
                                        CHANNELS 3 Yrotation Xrotation Zrotation
                                        JOINT RightHandThumb3
                                        {
                                            OFFSET -2.690000 0.000000 0.000000
                                            CHANNELS 3 Yrotation Xrotation Zrotation
                                            End Site
                                            {
                                                OFFSET -2.537000 0.000000 0.000000
                                            }
                                        }
                                    }
                                }
                                JOINT RightInHandIndex
                                {
                                    OFFSET -3.389000 0.535000 2.080000
                                    CHANNELS 3 Yrotation Xrotation Zrotation
                                    JOINT RightHandIndex1
                                    {
                                        OFFSET -5.485000 -0.096000 1.051000
                                        CHANNELS 3 Yrotation Xrotation Zrotation
                                        JOINT RightHandIndex2
                                        {
                                            OFFSET -3.806000 0.000000 0.000000
                                            CHANNELS 3 Yrotation Xrotation Zrotation
                                            JOINT RightHandIndex3
                                            {
                                                OFFSET -2.158000 0.000000 0.000000
                                                CHANNELS 3 Yrotation Xrotation Zrotation
                                                End Site
                                                {
                                                    OFFSET -1.898000 0.000000 0.000000
                                                }
                                            }
                                        }
                                    }
                                }
                                JOINT RightInHandMiddle
                                {
                                    OFFSET -3.556000 0.544000 0.796000
                                    CHANNELS 3 Yrotation Xrotation Zrotation
                                    JOINT RightHandMiddle1
                                    {
                                        OFFSET -5.441000 -0.088000 0.330000
                                        CHANNELS 3 Yrotation Xrotation Zrotation
                                        JOINT RightHandMiddle2
                                        {
                                            OFFSET -4.153000 0.000000 0.000000
                                            CHANNELS 3 Yrotation Xrotation Zrotation
                                            JOINT RightHandMiddle3
                                            {
                                                OFFSET -2.603000 0.000000 0.000000
                                                CHANNELS 3 Yrotation Xrotation Zrotation
                                                End Site
                                                {
                                                    OFFSET -2.076000 0.000000 0.000000
                                                }
                                            }
                                        }
                                    }
                                }
                                JOINT RightInHandRing
                                {
                                    OFFSET -3.539000 0.566000 -0.136000
                                    CHANNELS 3 Yrotation Xrotation Zrotation
                                    JOINT RightHandRing1
                                    {
                                        OFFSET -4.873000 -0.023000 -0.504000
                                        CHANNELS 3 Yrotation Xrotation Zrotation
                                        JOINT RightHandRing2
                                        {
                                            OFFSET -3.619000 0.000000 0.000000
                                            CHANNELS 3 Yrotation Xrotation Zrotation
                                            JOINT RightHandRing3
                                            {
                                                OFFSET -2.511000 0.000000 0.000000
                                                CHANNELS 3 Yrotation Xrotation Zrotation
                                                End Site
                                                {
                                                    OFFSET -1.952000 0.000000 0.000000
                                                }
                                            }
                                        }
                                    }
                                }
                                JOINT RightInHandPinky
                                {
                                    OFFSET -3.324000 0.494000 -1.264000
                                    CHANNELS 3 Yrotation Xrotation Zrotation
                                    JOINT RightHandPinky1
                                    {
                                        OFFSET -4.354000 -0.023000 -1.147000
                                        CHANNELS 3 Yrotation Xrotation Zrotation
                                        JOINT RightHandPinky2
                                        {
                                            OFFSET -2.898000 0.000000 0.000000
                                            CHANNELS 3 Yrotation Xrotation Zrotation
                                            JOINT RightHandPinky3
                                            {
                                                OFFSET -1.831000 0.000000 0.000000
                                                CHANNELS 3 Yrotation Xrotation Zrotation
                                                End Site
                                                {
                                                    OFFSET -1.730000 0.000000 0.000000
                                                }
                                            }
                                        }
                                    }
                                }
                            }
                        }
                    }
                }
                JOINT LeftShoulder
                {
                    OFFSET 2.900000 13.340000 0.000000
                    CHANNELS 3 Yrotation Xrotation Zrotation
                    JOINT LeftArm
                    {
                        OFFSET 16.100000 0.000000 0.000000
                        CHANNELS 3 Yrotation Xrotation Zrotation
                        JOINT LeftForeArm
                        {
                            OFFSET 28.000000 0.000000 0.000000
                            CHANNELS 3 Yrotation Xrotation Zrotation
                            JOINT LeftHand
                            {
                                OFFSET 26.000000 0.000000 0.000000
                                CHANNELS 3 Yrotation Xrotation Zrotation
                                JOINT LeftHandThumb1
                                {
                                    OFFSET 1.937000 -0.484000 2.518000
                                    CHANNELS 3 Yrotation Xrotation Zrotation
                                    JOINT LeftHandThumb2
                                    {
                                        OFFSET 3.872000 0.000000 0.000000
                                        CHANNELS 3 Yrotation Xrotation Zrotation
                                        JOINT LeftHandThumb3
                                        {
                                            OFFSET 2.690000 0.000000 0.000000
                                            CHANNELS 3 Yrotation Xrotation Zrotation
                                            End Site
                                            {
                                                OFFSET 2.537000 0.000000 0.000000
                                            }
                                        }
                                    }
                                }
                                JOINT LeftInHandIndex
                                {
                                    OFFSET 3.389000 0.535000 2.080000
                                    CHANNELS 3 Yrotation Xrotation Zrotation
                                    JOINT LeftHandIndex1
                                    {
                                        OFFSET 5.485000 -0.096000 1.051000
                                        CHANNELS 3 Yrotation Xrotation Zrotation
                                        JOINT LeftHandIndex2
                                        {
                                            OFFSET 3.806000 0.000000 0.000000
                                            CHANNELS 3 Yrotation Xrotation Zrotation
                                            JOINT LeftHandIndex3
                                            {
                                                OFFSET 2.158000 0.000000 0.000000
                                                CHANNELS 3 Yrotation Xrotation Zrotation
                                                End Site
                                                {
                                                    OFFSET 1.898000 0.000000 0.000000
                                                }
                                            }
                                        }
                                    }
                                }
                                JOINT LeftInHandMiddle
                                {
                                    OFFSET 3.556000 0.544000 0.796000
                                    CHANNELS 3 Yrotation Xrotation Zrotation
                                    JOINT LeftHandMiddle1
                                    {
                                        OFFSET 5.441000 -0.088000 0.330000
                                        CHANNELS 3 Yrotation Xrotation Zrotation
                                        JOINT LeftHandMiddle2
                                        {
                                            OFFSET 4.153000 0.000000 0.000000
                                            CHANNELS 3 Yrotation Xrotation Zrotation
                                            JOINT LeftHandMiddle3
                                            {
                                                OFFSET 2.603000 0.000000 0.000000
                                                CHANNELS 3 Yrotation Xrotation Zrotation
                                                End Site
                                                {
                                                    OFFSET 2.076000 0.000000 0.000000
                                                }
                                            }
                                        }
                                    }
                                }
                                JOINT LeftInHandRing
                                {
                                    OFFSET 3.539000 0.566000 -0.136000
                                    CHANNELS 3 Yrotation Xrotation Zrotation
                                    JOINT LeftHandRing1
                                    {
                                        OFFSET 4.873000 -0.023000 -0.504000
                                        CHANNELS 3 Yrotation Xrotation Zrotation
                                        JOINT LeftHandRing2
                                        {
                                            OFFSET 3.619000 0.000000 0.000000
                                            CHANNELS 3 Yrotation Xrotation Zrotation
                                            JOINT LeftHandRing3
                                            {
                                                OFFSET 2.511000 0.000000 0.000000
                                                CHANNELS 3 Yrotation Xrotation Zrotation
                                                End Site
                                                {
                                                    OFFSET 1.952000 0.000000 0.000000
                                                }
                                            }
                                        }
                                    }
                                }
                                JOINT LeftInHandPinky
                                {
                                    OFFSET 3.324000 0.494000 -1.264000
                                    CHANNELS 3 Yrotation Xrotation Zrotation
                                    JOINT LeftHandPinky1
                                    {
                                        OFFSET 4.354000 -0.023000 -1.147000
                                        CHANNELS 3 Yrotation Xrotation Zrotation
                                        JOINT LeftHandPinky2
                                        {
                                            OFFSET 2.898000 0.000000 0.000000
                                            CHANNELS 3 Yrotation Xrotation Zrotation
                                            JOINT LeftHandPinky3
                                            {
                                                OFFSET 1.831000 0.000000 0.000000
                                                CHANNELS 3 Yrotation Xrotation Zrotation
                                                End Site
                                                {
                                                    OFFSET 1.730000 0.000000 0.000000
                                                }
                                            }
                                        }
                                    }
                                }
                            }
                        }
                    }
                }
            }
        }
    }
}
MOTION
Frames: 4
Frame Time: 0.011111
1.697429 137.592102 74.060165 1.502204 4.637854 -3.895389 8.568080 -59.333088 7.653111 114.807365 116.617897 123.847000 4.477892 -22.171881 -2.120784 170.581482 -174.797974 -176.026550 11.824651 14.821990 -0.707470 10.094300 -12.561502 -1.554386 0.015556 7.571397 0.591883 0.020066 7.425649 0.889550 179.891678 174.618774 -178.833679 179.999985 -176.286560 178.817734 179.999985 -175.667633 178.775497 177.380386 -176.780731 179.416580 4.382189 -0.595659 -3.716408 178.192413 -178.571732 -96.856667 161.186356 176.791748 174.952957 170.233871 177.983902 175.650864 51.428104 37.548260 12.342978 0.000034 -0.000022 10.008110 0.000032 -0.000014 6.665403 0.000000 -0.000003 0.000000 15.000016 -0.000137 34.767143 0.000069 -0.000088 28.445858 0.000066 -0.000046 19.912079 0.000000 -0.000003 0.000000 180.000000 -179.999954 -143.124496 0.000022 -0.000043 36.875500 0.000030 -0.000021 24.559063 0.000000 -0.000003 0.000000 170.000000 -179.999985 -139.695557 0.000007 -0.000032 40.304405 0.000019 -0.000005 26.842741 0.000000 -0.000003 0.000000 159.999924 -179.999878 -159.911911 179.999969 -179.999786 -149.867844 0.000067 -0.000130 20.068010 0.619006 -2.828852 -6.200871 151.189743 -140.364456 129.684448 155.507156 -174.791855 179.488708 3.233152 -1.424759 0.064005 133.373428 118.931816 177.973801 179.999954 -179.999969 177.886169 179.999954 -179.999985 178.592194 0.000000 0.000003 0.000000 165.000336 179.999908 160.488419 0.000281 -0.000012 -15.964005 0.000182 -0.000068 -11.174820 0.000000 0.000003 0.000000 0.000323 0.000088 -34.116631 0.000315 -0.000107 -34.116604 0.000137 -0.000185 -22.721685 0.000000 0.000003 0.000000 10.000070 0.000019 -30.460089 0.000065 -0.000018 -30.460106 0.000029 -0.000026 -20.286419 0.000000 0.000003 0.000000 20.000137 0.000042 -21.932922 0.000210 -0.000023 -32.899399 0.000113 -0.000086 -21.910995
1.578483 137.721786 74.912895 1.741807 4.585134 -3.984838 7.181593 -58.417747 8.976487 118.391716 117.497093 126.789062 4.493303 -21.899218 -2.196334 170.695786 -175.396820 -175.782837 11.938625 14.719891 -0.838426 9.529442 -12.191536 -1.793172 179.979538 172.385132 -179.327530 179.995987 172.531601 -178.983765 179.748184 174.585236 -178.683365 179.999985 -176.286499 178.802917 179.999985 -175.667587 178.760162 177.340668 -176.780075 179.409668 4.369744 -0.560145 -3.752346 177.987198 -178.769073 -96.982841 161.139908 176.714279 174.969208 170.179016 177.949936 175.812027 51.458397 37.651802 12.283744 180.000000 179.999969 -170.069214 179.999985 179.999985 -173.386093 0.000000 -0.000000 0.000000 14.999967 -0.000052 34.692078 0.000007 -0.000055 28.384451 0.000019 -0.000031 19.869108 0.000000 -0.000000 0.000000 0.000022 0.000022 36.820869 0.000010 0.000029 36.820900 179.999985 179.999985 -155.477295 0.000000 -0.000000 0.000000 169.999969 -179.999969 -139.698532 179.999985 -179.999954 -139.698547 0.000013 -0.000028 26.840780 0.000000 -0.000000 0.000000 159.999924 -179.999954 -159.983612 179.999908 -179.999893 -149.975403 179.999985 -179.999893 -160.003647 0.527636 -2.768174 -6.299642 150.591599 -140.398499 130.560394 155.422928 -174.886612 179.335770 3.265648 -1.459763 0.065102 133.839493 118.898842 178.395844 179.999924 -179.999969 177.869125 179.999954 -179.999985 178.580841 0.000000 0.000003 0.000000 165.000214 179.999985 160.582123 0.000155 -0.000047 -15.887370 0.000106 -0.000062 -11.121137 0.000000 0.000003 0.000000 0.000044 0.000006 -34.007736 0.000037 -0.000021 -34.007748 0.000012 -0.000025 -22.649162 0.000000 0.000003 0.000000 10.000022 0.000004 -30.440834 0.000028 -0.000017 -30.440876 0.000008 -0.000012 -20.273609 0.000000 0.000003 0.000000 20.000032 0.000004 -21.885752 0.000053 -0.000016 -32.828632 0.000021 -0.000022 -21.863869
1.449747 137.894653 75.794289 2.007049 4.523809 -4.077518 5.493023 -57.352280 10.310410 122.204109 118.111549 129.812180 4.381734 -21.606649 -2.323988 170.942719 -175.958084 -175.515030 11.901533 14.684898 -0.963055 8.925207 -11.627547 -2.055959 179.951111 172.340439 -179.246735 179.977921 172.487625 -178.862335 179.633804 174.551132 -178.536453 179.999985 -176.296844 178.790024 179.999985 -175.679642 178.746811 177.274338 -176.788101 179.405075 4.355415 -0.511914 -3.763355 177.910355 -178.906097 -97.068436 161.147766 176.720276 175.023590 170.185379 177.906097 175.952438 51.496937 37.769878 12.209678 179.999969 179.999924 -170.162491 179.999985 179.999954 -173.448227 0.000000 -0.000000 0.000000 14.999959 0.000018 34.593098 179.999969 -179.999985 -151.696533 179.999985 -179.999985 -160.187607 0.000000 -0.000000 0.000000 179.999939 179.999985 -143.106964 179.999954 -179.999985 -143.106964 179.999985 -179.999969 -155.429230 0.000000 -0.000000 0.000000 169.999939 179.999985 -139.740753 179.999954 -179.999969 -139.740784 179.999985 -179.999985 -153.187363 0.000000 -0.000000 0.000000 159.999908 179.999985 -160.067703 179.999863 -179.999985 -150.101547 179.999939 -179.999954 -160.087631 0.413446 -2.707482 -6.380293 150.163132 -140.501678 131.283707 155.355682 -175.066010 179.118942 3.305393 -1.457871 0.056983 134.288467 118.898933 178.783249 179.999908 -179.999969 177.839172 179.999954 -179.999985 178.560898 0.000000 -0.000000 0.000000 165.000092 -179.999985 160.656387 0.000062 -0.000026 -15.826572 0.000037 -0.000031 -11.078604 0.000000 -0.000000 0.000000 0.000018 -0.000002 -33.993366 0.000011 -0.000011 -33.993378 0.000003 -0.000013 -22.639589 0.000000 -0.000000 0.000000 9.999990 -0.000000 -30.428261 179.999985 179.999985 149.571747 180.000000 179.999985 159.734787 0.000000 -0.000000 0.000000 19.999954 0.000005 -21.865490 179.999954 179.999969 147.201752 179.999985 179.999969 158.156357
1.296081 138.073868 76.686241 2.294326 4.454321 -4.173915 4.202812 -56.200844 11.477773 125.405548 118.856384 132.402573 4.205607 -21.331451 -2.479472 170.867371 -176.498352 -175.192520 12.164671 14.734618 -1.064017 8.280206 -10.859669 -2.348456 179.927780 172.293884 -179.163971 179.961761 172.441818 -178.740646 179.527893 174.515579 -178.388229 179.999985 -176.319656 178.777359 179.999985 -175.706284 178.733704 177.223679 -176.806992 179.399307 4.371889 -0.461089 -3.768037 177.963577 -178.982651 -97.106476 161.202087 176.822418 175.116959 170.243683 177.840790 176.064255 51.535091 37.884468 12.140168 179.999954 179.999893 -170.252136 179.999969 179.999939 -173.507919 0.000003 -0.000000 0.000000 14.999961 0.000043 34.506371 179.999954 179.999985 -151.767532 179.999985 -179.999985 -160.237274 0.000003 -0.000000 0.000000 179.999954 179.999969 -143.188705 179.999939 -179.999985 -143.188690 179.999969 -179.999985 -155.483688 0.000003 -0.000000 0.000000 169.999939 179.999954 -139.807281 179.999924 -179.999985 -139.807266 179.999969 -179.999969 -153.231659 0.000003 -0.000000 0.000000 159.999924 179.999954 -160.157883 179.999878 179.999985 -150.236847 179.999939 -179.999985 -160.177750 0.310596 -2.653861 -6.460172 149.936401 -140.672501 131.833832 155.284256 -175.353043 178.813049 3.353852 -1.430099 0.053815 134.857773 119.052864 179.405472 179.999252 -179.999664 177.846725 179.999496 -179.999802 178.565918 0.000000 -0.000003 0.000000 165.000015 -179.999985 160.698944 0.000000 0.000000 -15.791768 0.000007 -0.000003 -11.054241 0.000000 -0.000003 0.000000 0.000023 -0.000004 -33.987701 0.000018 -0.000019 -33.987701 180.000000 -179.999985 157.364197 0.000000 -0.000003 0.000000 9.999974 0.000008 -30.429281 179.999985 179.999985 149.570724 180.000000 179.999985 159.734100 0.000000 -0.000003 0.000000 19.999916 0.000027 -21.876062 179.999908 179.999924 147.185883 179.999985 179.999924 158.145798
